<svg width="89" height="208" viewBox="0 0 89 208" fill="none" xmlns="http://www.w3.org/2000/svg">
<path fill-rule="evenodd" clip-rule="evenodd" d="M56 2.53906C26.2155 2.53906 2.07031 26.6842 2.07031 56.4688C2.07025 67.646 6.3407 76.473 11.2579 85.2941C11.8768 86.4043 12.5066 87.5154 13.1393 88.6314C17.5111 96.3436 22.0181 104.294 23.989 113.87C26.629 126.697 27.3834 145.575 27.5899 153.382C27.6299 154.895 28.8639 156.102 30.3687 156.102H81.6313C83.1361 156.102 84.3701 154.895 84.4101 153.382C84.6166 145.575 85.371 126.697 88.011 113.87C89.9661 104.371 94.4177 96.6411 98.7542 89.1111C99.4236 87.9487 100.09 86.7911 100.745 85.6324C105.656 76.9352 109.93 68.1058 109.93 56.4688C109.93 26.6842 85.7845 2.53906 56 2.53906ZM0.242188 56.4688C0.242188 25.6746 25.2058 0.710938 56 0.710938C86.7942 0.710938 111.758 25.6746 111.758 56.4688C111.758 68.5974 107.283 77.7716 102.336 86.5314C101.67 87.7108 100.997 88.8814 100.324 90.05C95.9838 97.5928 91.6928 105.05 89.8015 114.239C87.1986 126.886 86.4445 145.61 86.2376 153.43C86.1716 155.925 84.1357 157.93 81.6313 157.93H30.3687C27.8643 157.93 25.8284 155.925 25.7624 153.43C25.5555 145.61 24.8014 126.886 22.1985 114.239C20.2898 104.966 15.9365 97.2804 11.5581 89.551C10.9238 88.4313 10.289 87.3107 9.66109 86.1842C4.71981 77.3198 0.242124 68.143 0.242188 56.4688Z" fill="white" fill-opacity="0.39"/>
<path fill-rule="evenodd" clip-rule="evenodd" d="M12.1252 87.5469L11.918 86.6566C11.4264 86.771 11.1205 87.2624 11.2349 87.754C11.3493 88.2457 11.8406 88.5515 12.3322 88.4372M12.3322 88.4372L12.3411 88.4351L12.3728 88.4279L12.5046 88.3986C12.6228 88.3727 12.8015 88.3342 13.04 88.285C13.517 88.1866 14.233 88.0453 15.1815 87.8753C17.0787 87.5354 19.9062 87.0809 23.6131 86.626C31.0271 85.7162 41.9586 84.8047 56.0002 84.8047C70.0418 84.8047 80.9734 85.7162 88.3873 86.626C92.0942 87.0809 94.9217 87.5354 96.8189 87.8753C97.7674 88.0453 98.4834 88.1866 98.9604 88.285C99.1989 88.3342 99.3776 88.3727 99.4958 88.3986L99.6276 88.4279L99.6593 88.4351L99.6665 88.4368C99.6665 88.4368 99.6666 88.4368 99.6665 88.4368C100.158 88.5511 100.651 88.2457 100.765 87.754C100.88 87.2624 100.574 86.771 100.082 86.6566L99.8752 87.5469C100.082 86.6566 100.083 86.6567 100.082 86.6566L100.078 86.6556L100.068 86.6533L100.031 86.6448L99.8879 86.613C99.7622 86.5854 99.5759 86.5453 99.3297 86.4946C98.8374 86.393 98.1058 86.2487 97.1413 86.0759C95.2122 85.7302 92.3514 85.2706 88.6099 84.8115C81.1269 83.8932 70.121 82.9766 56.0002 82.9766C41.8794 82.9766 30.8735 83.8932 23.3905 84.8115C19.649 85.2706 16.7882 85.7302 14.8591 86.0759C13.8946 86.2487 13.163 86.393 12.6707 86.4946C12.4245 86.5453 12.2382 86.5854 12.1125 86.613L11.9695 86.6448L11.9323 86.6533L11.9223 86.6556L11.918 86.6566C11.9177 86.6567 11.918 86.6566 12.1252 87.5469" fill="white" fill-opacity="0.39"/>
<path fill-rule="evenodd" clip-rule="evenodd" d="M28.0297 156.284C28.4336 155.982 29.0065 156.063 29.3094 156.467L34.4282 163.292C34.7842 163.767 34.9766 164.344 34.9766 164.938V171.641C34.9766 172.146 34.5674 172.555 34.0626 172.555C33.5577 172.555 33.1485 172.146 33.1485 171.641V164.938C33.1485 164.74 33.0843 164.547 32.9657 164.389L27.8469 157.564C27.544 157.16 27.6259 156.587 28.0297 156.284ZM83.9704 156.284C84.3742 156.587 84.4561 157.16 84.1532 157.564L79.0344 164.389C78.9158 164.547 78.8516 164.74 78.8516 164.938V171.641C78.8516 172.146 78.4424 172.555 77.9376 172.555C77.4327 172.555 77.0235 172.146 77.0235 171.641V164.938C77.0235 164.344 77.2159 163.767 77.5719 163.292L82.6907 156.467C82.9936 156.063 83.5665 155.982 83.9704 156.284Z" fill="white" fill-opacity="0.39"/>
<path fill-rule="evenodd" clip-rule="evenodd" d="M35.4886 168.277C36.672 167.548 38.1524 167.07 39.3275 167.07H72.6725C73.8476 167.07 75.328 167.548 76.5114 168.277C77.6473 168.977 78.8516 170.129 78.8516 171.641C78.8516 173.153 77.6473 174.304 76.5114 175.004C76.3446 175.107 76.1719 175.205 75.995 175.297C76.1719 175.389 76.3446 175.487 76.5114 175.59C77.6473 176.289 78.8516 177.441 78.8516 178.953C78.8516 180.465 77.6473 181.617 76.5114 182.317C76.3446 182.419 76.1719 182.517 75.995 182.609C76.1719 182.702 76.3446 182.799 76.5114 182.902C77.6473 183.602 78.8516 184.754 78.8516 186.266C78.8516 187.778 77.6473 188.929 76.5114 189.629C76.3446 189.732 76.1719 189.83 75.995 189.922C76.1719 190.014 76.3446 190.112 76.5114 190.215C77.6473 190.914 78.8516 192.066 78.8516 193.578C78.8516 195.09 77.6473 196.242 76.5114 196.942C75.328 197.671 73.8476 198.148 72.6725 198.148H39.3275C38.1524 198.148 36.672 197.671 35.4886 196.942C34.3527 196.242 33.1484 195.09 33.1484 193.578C33.1484 192.066 34.3527 190.914 35.4886 190.215C35.6554 190.112 35.8281 190.014 36.005 189.922C35.8281 189.83 35.6554 189.732 35.4886 189.629C34.3527 188.929 33.1484 187.778 33.1484 186.266C33.1484 184.754 34.3527 183.602 35.4886 182.902C35.6554 182.799 35.8281 182.702 36.005 182.609C35.8281 182.517 35.6554 182.419 35.4886 182.317C34.3527 181.617 33.1484 180.465 33.1484 178.953C33.1484 177.441 34.3527 176.289 35.4886 175.59C35.6554 175.487 35.8281 175.389 36.005 175.297C35.8281 175.205 35.6554 175.107 35.4886 175.004C34.3527 174.304 33.1484 173.153 33.1484 171.641C33.1484 170.129 34.3527 168.977 35.4886 168.277ZM39.3275 174.383C38.5641 174.383 37.4119 174.042 36.4475 173.448C35.4355 172.824 34.9766 172.148 34.9766 171.641C34.9766 171.133 35.4355 170.457 36.4475 169.833C37.4119 169.239 38.5641 168.898 39.3275 168.898H72.6725C73.4359 168.898 74.5881 169.239 75.5525 169.833C76.5645 170.457 77.0234 171.133 77.0234 171.641C77.0234 172.148 76.5645 172.824 75.5525 173.448C74.5881 174.042 73.4359 174.383 72.6725 174.383H39.3275ZM72.6725 176.211H39.3275C38.5641 176.211 37.4119 176.552 36.4475 177.146C35.4355 177.769 34.9766 178.446 34.9766 178.953C34.9766 179.461 35.4355 180.137 36.4475 180.76C37.4119 181.354 38.5641 181.695 39.3275 181.695H72.6725C73.4359 181.695 74.5881 181.354 75.5525 180.76C76.5645 180.137 77.0234 179.461 77.0234 178.953C77.0234 178.446 76.5645 177.769 75.5525 177.146C74.5881 176.552 73.4359 176.211 72.6725 176.211ZM72.6725 183.523H39.3275C38.5641 183.523 37.4119 183.864 36.4475 184.458C35.4355 185.082 34.9766 185.758 34.9766 186.266C34.9766 186.773 35.4355 187.449 36.4475 188.073C37.4119 188.667 38.5641 189.008 39.3275 189.008H72.6725C73.4359 189.008 74.5881 188.667 75.5525 188.073C76.5645 187.449 77.0234 186.773 77.0234 186.266C77.0234 185.758 76.5645 185.082 75.5525 184.458C74.5881 183.864 73.4359 183.523 72.6725 183.523ZM72.6725 190.836H39.3275C38.5641 190.836 37.4119 191.177 36.4475 191.771C35.4355 192.394 34.9766 193.071 34.9766 193.578C34.9766 194.086 35.4355 194.762 36.4475 195.385C37.4119 195.979 38.5641 196.32 39.3275 196.32H72.6725C73.4359 196.32 74.5881 195.979 75.5525 195.385C76.5645 194.762 77.0234 194.086 77.0234 193.578C77.0234 193.071 76.5645 192.394 75.5525 191.771C74.5881 191.177 73.4359 190.836 72.6725 190.836Z" fill="white" fill-opacity="0.39"/>
<path fill-rule="evenodd" clip-rule="evenodd" d="M40.7287 196.588C41.0856 196.231 41.6644 196.231 42.0213 196.588L49.0202 203.587C50.2201 204.787 51.8476 205.461 53.5446 205.461H58.4554C60.1524 205.461 61.7799 204.787 62.9798 203.587L69.9787 196.588C70.3356 196.231 70.9144 196.231 71.2713 196.588C71.6283 196.945 71.6283 197.524 71.2713 197.881L64.2725 204.88C62.7297 206.422 60.6373 207.289 58.4554 207.289H53.5446C51.3627 207.289 49.2703 206.422 47.7275 204.88L40.7287 197.881C40.3717 197.524 40.3717 196.945 40.7287 196.588Z" fill="white" fill-opacity="0.39"/>
<path fill-rule="evenodd" clip-rule="evenodd" d="M85.6215 112.305C85.1602 112.1 84.62 112.308 84.415 112.769L85.2503 113.141C84.415 112.769 84.4151 112.769 84.415 112.769L84.4127 112.774L84.4079 112.785L84.3904 112.826C84.3754 112.86 84.3537 112.911 84.3257 112.977C84.2698 113.11 84.1888 113.306 84.0865 113.564C83.8819 114.079 83.5916 114.841 83.2443 115.84C82.5498 117.836 81.6272 120.778 80.7057 124.58C78.8627 132.182 77.0237 143.223 77.0237 157.016C77.0237 157.52 77.4329 157.93 77.9377 157.93C78.4426 157.93 78.8518 157.52 78.8518 157.016C78.8518 143.386 80.6691 132.49 82.4823 125.01C83.3889 121.271 84.2944 118.385 84.971 116.44C85.3093 115.468 85.5903 114.73 85.7856 114.239C85.8832 113.993 85.9594 113.808 86.0106 113.687C86.0362 113.626 86.0555 113.581 86.0681 113.552L86.082 113.52L86.0851 113.513C86.2899 113.052 86.0827 112.51 85.6215 112.305Z" fill="white" fill-opacity="0.39"/>
<path fill-rule="evenodd" clip-rule="evenodd" d="M26.3785 112.305C26.8398 112.1 27.38 112.308 27.585 112.769L26.7497 113.141C27.585 112.769 27.5849 112.769 27.585 112.769L27.5873 112.774L27.5921 112.785L27.6096 112.826C27.6246 112.86 27.6463 112.911 27.6743 112.977C27.7302 113.11 27.8112 113.306 27.9135 113.564C28.1181 114.079 28.4084 114.841 28.7557 115.84C29.4502 117.836 30.3728 120.778 31.2943 124.58C33.1373 132.182 34.9763 143.223 34.9763 157.016C34.9763 157.52 34.5671 157.93 34.0623 157.93C33.5574 157.93 33.1482 157.52 33.1482 157.016C33.1482 143.386 31.3309 132.49 29.5177 125.01C28.6111 121.271 27.7056 118.385 27.029 116.44C26.6907 115.468 26.4097 114.73 26.2144 114.239C26.1168 113.993 26.0406 113.808 25.9894 113.687C25.9638 113.626 25.9445 113.581 25.9319 113.552L25.918 113.52L25.9149 113.513C25.7101 113.052 25.9173 112.51 26.3785 112.305Z" fill="white" fill-opacity="0.39"/>
<path fill-rule="evenodd" clip-rule="evenodd" d="M54.3231 119.223C53.6662 125.135 53.2578 133.327 53.2578 142.391C53.2578 147.629 53.3942 152.578 53.6365 156.965C53.6643 157.469 53.2783 157.9 52.7742 157.928C52.2701 157.956 51.839 157.57 51.8111 157.066C51.5669 152.642 51.4297 147.659 51.4297 142.391C51.4297 133.281 51.8398 125.019 52.5062 119.021C52.8387 116.029 53.2385 113.567 53.6928 111.838C53.918 110.981 54.1697 110.251 54.4599 109.717C54.6045 109.45 54.7829 109.187 55.0095 108.98C55.241 108.768 55.5757 108.57 56 108.57C56.4243 108.57 56.759 108.768 56.9905 108.98C57.2171 109.187 57.3955 109.45 57.5401 109.717C57.8303 110.251 58.082 110.981 58.3072 111.838C58.7615 113.567 59.1613 116.029 59.4938 119.021C60.1602 125.019 60.5703 133.281 60.5703 142.391C60.5703 147.659 60.4331 152.642 60.1889 157.066C60.161 157.57 59.7299 157.956 59.2258 157.928C58.7217 157.9 58.3357 157.469 58.3635 156.965C58.6058 152.578 58.7422 147.629 58.7422 142.391C58.7422 133.327 58.3338 125.135 57.6769 119.223C57.3478 116.261 56.9597 113.904 56.5391 112.303C56.3519 111.59 56.1683 111.067 56 110.719C55.8317 111.067 55.6481 111.59 55.4609 112.303C55.0403 113.904 54.6522 116.261 54.3231 119.223Z" fill="white" fill-opacity="0.39"/>
<path fill-rule="evenodd" clip-rule="evenodd" d="M41.2609 119.198C40.7674 125.121 40.4609 133.321 40.4609 142.391C40.4609 147.633 40.5633 152.586 40.7452 156.978C40.7661 157.482 40.3741 157.908 39.8697 157.929C39.3653 157.95 38.9395 157.558 38.9186 157.053C38.7356 152.634 38.6328 147.656 38.6328 142.391C38.6328 133.287 38.9402 125.034 39.4391 119.046C39.6882 116.058 39.987 113.609 40.3249 111.894C40.4924 111.043 40.6779 110.329 40.8899 109.808C40.994 109.552 41.1259 109.289 41.3021 109.074C41.4686 108.871 41.7955 108.57 42.2891 108.57C42.7827 108.57 43.1095 108.871 43.2761 109.074C43.4522 109.289 43.5841 109.552 43.6883 109.808C43.9002 110.329 44.0858 111.043 44.2533 111.894C44.5912 113.609 44.8899 116.058 45.139 119.046C45.6379 125.034 45.9453 133.287 45.9453 142.391C45.9453 147.656 45.8425 152.634 45.6595 157.053C45.6386 157.558 45.2128 157.95 44.7084 157.929C44.204 157.908 43.812 157.482 43.8329 156.978C44.0148 152.586 44.1172 147.633 44.1172 142.391C44.1172 133.321 43.8107 125.121 43.3172 119.198C43.07 116.232 42.7779 113.862 42.4596 112.247C42.4024 111.956 42.3453 111.696 42.2891 111.465C42.2328 111.696 42.1758 111.956 42.1185 112.247C41.8002 113.862 41.5081 116.232 41.2609 119.198Z" fill="white" fill-opacity="0.39"/>
<path fill-rule="evenodd" clip-rule="evenodd" d="M68.6828 119.198C68.1893 125.121 67.8828 133.321 67.8828 142.391C67.8828 147.633 67.9852 152.586 68.1671 156.978C68.188 157.482 67.796 157.908 67.2916 157.929C66.7872 157.95 66.3614 157.558 66.3405 157.053C66.1575 152.634 66.0547 147.656 66.0547 142.391C66.0547 133.287 66.3621 125.034 66.861 119.046C67.1101 116.058 67.4088 113.609 67.7467 111.894C67.9142 111.043 68.0998 110.329 68.3117 109.808C68.4159 109.552 68.5478 109.289 68.7239 109.074C68.8905 108.871 69.2173 108.57 69.7109 108.57C70.2045 108.57 70.5314 108.871 70.6979 109.074C70.8741 109.289 71.006 109.552 71.1101 109.808C71.3221 110.329 71.5076 111.043 71.6751 111.894C72.013 113.609 72.3118 116.058 72.5609 119.046C73.0598 125.034 73.3672 133.287 73.3672 142.391C73.3672 147.656 73.2644 152.634 73.0814 157.053C73.0605 157.558 72.6347 157.95 72.1303 157.929C71.6259 157.908 71.2339 157.482 71.2548 156.978C71.4367 152.586 71.5391 147.633 71.5391 142.391C71.5391 133.321 71.2326 125.121 70.7391 119.198C70.4919 116.232 70.1998 113.862 69.8815 112.247C69.8242 111.956 69.7672 111.696 69.7109 111.465C69.6547 111.696 69.5976 111.956 69.5404 112.247C69.2221 113.862 68.93 116.232 68.6828 119.198Z" fill="white" fill-opacity="0.39"/>
</svg>
