<svg width="145" height="187" viewBox="0 0 145 187" fill="none" xmlns="http://www.w3.org/2000/svg">
<path fill-rule="evenodd" clip-rule="evenodd" d="M13.6424 172.227C13.8305 172.07 14.0676 171.984 14.3126 171.984H181.813C182.09 171.984 182.356 172.095 182.553 172.291L193.022 182.76C193.321 183.059 193.41 183.509 193.248 183.901C193.086 184.292 192.705 184.547 192.281 184.547H1.75005C1.3093 184.547 0.915751 184.271 0.765707 183.856C0.615663 183.442 0.741263 182.978 1.07986 182.696L13.6424 172.227ZM14.6916 174.078L4.64157 182.453H189.754L181.379 174.078H14.6916Z" fill="white" fill-opacity="0.39"/>
<path fill-rule="evenodd" clip-rule="evenodd" d="M12.72 6.91913C13.0835 3.16287 16.2402 0.296875 20.014 0.296875H217.984C221.757 0.296875 224.914 3.16287 225.278 6.91912L236.624 124.169C237.041 128.475 233.656 132.203 229.33 132.203H8.66723C4.34109 132.203 0.956475 128.475 1.37319 124.169L12.72 6.91913ZM20.014 2.39062C17.3184 2.39062 15.0636 4.43777 14.804 7.12081L3.4572 124.371C3.15955 127.447 5.57713 130.109 8.66723 130.109H229.33C232.42 130.109 234.838 127.447 234.54 124.371L223.194 7.1208C222.934 4.43777 220.679 2.39062 217.984 2.39062H20.014Z" fill="white" fill-opacity="0.39"/>
<path fill-rule="evenodd" clip-rule="evenodd" d="M17.1474 9.30133C17.365 6.58102 19.6361 4.48438 22.3651 4.48438H215.633C218.362 4.48438 220.633 6.58103 220.851 9.30133L228.375 103.353C228.716 107.617 225.348 111.266 221.07 111.266H16.928C12.6504 111.266 9.28211 107.617 9.62323 103.353L17.1474 9.30133ZM22.3651 6.57812C20.7277 6.57812 19.365 7.83611 19.2345 9.4683L11.7103 103.52C11.4667 106.566 13.8726 109.172 16.928 109.172H221.07C224.126 109.172 226.532 106.566 226.288 103.52L218.764 9.4683C218.633 7.83612 217.271 6.57812 215.633 6.57812H22.3651Z" fill="white" fill-opacity="0.39"/>
<path fill-rule="evenodd" clip-rule="evenodd" d="M95.9756 131.037C96.0362 130.508 96.4837 130.109 97.0157 130.109H140.984C141.539 130.109 141.998 130.542 142.03 131.096L143.072 149.292C145.089 158.939 151.014 162.399 154.916 163.66C155.406 163.819 155.708 164.31 155.628 164.819C155.548 165.328 155.109 165.703 154.594 165.703H83.4063C82.8911 165.703 82.4524 165.328 82.3722 164.819C82.292 164.31 82.5941 163.819 83.0844 163.66C86.5372 162.544 89.0676 159.969 90.8383 157.102C92.6011 154.247 93.552 151.195 93.8853 149.28L95.9756 131.037ZM97.9495 132.203L95.962 149.548C95.9598 149.568 95.957 149.587 95.9537 149.606C95.5846 151.754 94.5471 155.081 92.6197 158.202C91.3951 160.185 89.7871 162.122 87.7304 163.609H149.927C146.289 161.289 142.547 157.111 141.006 149.64C140.996 149.59 140.989 149.54 140.986 149.489L139.996 132.203H97.9495Z" fill="white" fill-opacity="0.39"/>
</svg>
