<svg width="103" height="192" viewBox="0 0 103 192" fill="none" xmlns="http://www.w3.org/2000/svg">
<path fill-rule="evenodd" clip-rule="evenodd" d="M90.25 24.2813C97.2399 24.2813 102.906 29.9476 102.906 36.9375L102.906 178.688C102.906 185.677 97.2398 191.344 90.25 191.344L59.875 191.344C59.409 191.344 59.0312 190.966 59.0312 190.5C59.0312 190.034 59.409 189.656 59.875 189.656L90.25 189.656C96.3079 189.656 101.219 184.745 101.219 178.687L101.219 36.9375C101.219 30.8796 96.3079 25.9688 90.25 25.9688L73.375 25.9687C72.909 25.9687 72.5312 25.591 72.5312 25.125C72.5312 24.659 72.909 24.2812 73.375 24.2812L90.25 24.2813Z" fill="white" fill-opacity="0.39"/>
<path fill-rule="evenodd" clip-rule="evenodd" d="M90.25 27.6563C95.3759 27.6563 99.5312 31.8116 99.5312 36.9375L99.5312 178.687C99.5312 183.813 95.3759 187.969 90.25 187.969L70 187.969C69.534 187.969 69.1562 187.591 69.1562 187.125C69.1562 186.659 69.534 186.281 70 186.281L90.25 186.281C94.4439 186.281 97.8437 182.881 97.8437 178.687L97.8437 36.9375C97.8437 32.7436 94.4439 29.3438 90.25 29.3438L73.375 29.3437C72.909 29.3437 72.5312 28.966 72.5312 28.5C72.5312 28.034 72.909 27.6562 73.375 27.6562L90.25 27.6563Z" fill="white" fill-opacity="0.39"/>
<path fill-rule="evenodd" clip-rule="evenodd" d="M72.5312 28.5C72.5312 28.034 72.909 27.6562 73.375 27.6562H83.5V28.5H84.3438C84.3438 32.6939 80.9439 36.0938 76.75 36.0938H73.375C72.909 36.0938 72.5312 35.716 72.5312 35.25V28.5ZM82.5964 29.3438H74.2188V34.4062H76.75C79.7255 34.4062 82.187 32.206 82.5964 29.3438Z" fill="white" fill-opacity="0.39"/>
<path fill-rule="evenodd" clip-rule="evenodd" d="M61.5625 0.656249C68.5524 0.65625 74.2187 6.32265 74.2187 13.3125L74.2187 178.688C74.2187 185.677 68.5523 191.344 61.5625 191.344L-5.93751 191.344C-12.9274 191.344 -18.5938 185.677 -18.5938 178.687L-18.5938 13.3125C-18.5938 6.32264 -12.9274 0.656246 -5.9375 0.656246L61.5625 0.656249ZM72.5312 13.3125C72.5312 7.25463 67.6204 2.34375 61.5625 2.34375L-5.9375 2.34375C-11.9954 2.34375 -16.9063 7.25462 -16.9063 13.3125L-16.9063 178.687C-16.9063 184.745 -11.9954 189.656 -5.93751 189.656L61.5625 189.656C67.6204 189.656 72.5312 184.745 72.5312 178.687L72.5312 13.3125Z" fill="white" fill-opacity="0.39"/>
<path fill-rule="evenodd" clip-rule="evenodd" d="M61.5625 4.03125C66.6884 4.03125 70.8437 8.18661 70.8437 13.3125L70.8437 178.688C70.8437 183.813 66.6884 187.969 61.5625 187.969L-5.93751 187.969C-11.0634 187.969 -15.2188 183.813 -15.2188 178.687L-15.2188 13.3125C-15.2188 8.1866 -11.0634 4.03125 -5.9375 4.03125L61.5625 4.03125ZM69.1562 13.3125C69.1562 9.11859 65.7564 5.71875 61.5625 5.71875L-5.9375 5.71875C-10.1314 5.71875 -13.5313 9.11858 -13.5313 13.3125L-13.5313 178.687C-13.5313 182.881 -10.1314 186.281 -5.93751 186.281L61.5625 186.281C65.7564 186.281 69.1562 182.881 69.1562 178.687L69.1562 13.3125Z" fill="white" fill-opacity="0.39"/>
<path fill-rule="evenodd" clip-rule="evenodd" d="M3.34375 4.875C3.34375 4.40901 3.72151 4.03125 4.1875 4.03125H54.8125V4.875H55.6562C55.6562 10.0009 51.5009 14.1562 46.375 14.1562H12.625C7.49911 14.1562 3.34375 10.0009 3.34375 4.875ZM5.0776 5.71875C5.49731 9.51558 8.71628 12.4688 12.625 12.4688H46.375C50.2837 12.4688 53.5027 9.51558 53.9224 5.71875H5.0776Z" fill="white" fill-opacity="0.39"/>
</svg>
