<svg width="150" height="168" viewBox="0 0 150 168" fill="none" xmlns="http://www.w3.org/2000/svg">
<path fill-rule="evenodd" clip-rule="evenodd" d="M-26.6393 6.28176C-26.9802 4.77199 -25.8323 3.33594 -24.2845 3.33594H142.283C143.83 3.33594 144.978 4.77199 144.637 6.28176L133.654 54.9175C133.24 56.7519 131.61 58.0547 129.73 58.0547H-11.7316C-13.6122 58.0547 -15.2419 56.7519 -15.6562 54.9175L-26.6393 6.28176ZM-24.2845 4.94531C-24.8004 4.94531 -25.1831 5.424 -25.0694 5.92725L-14.0863 54.563C-13.8378 55.6637 -12.8599 56.4453 -11.7316 56.4453H129.73C130.858 56.4453 131.836 55.6637 132.084 54.563L143.068 5.92725C143.181 5.424 142.799 4.94531 142.283 4.94531H-24.2845Z" fill="white" fill-opacity="0.39"/>
<path fill-rule="evenodd" clip-rule="evenodd" d="M-31.017 5.03139C-31.5885 2.51391 -29.6749 0.117188 -27.0934 0.117188H145.094C147.675 0.117188 149.589 2.51391 149.017 5.03139L137.245 56.8877C136.662 59.4529 134.382 61.2734 131.752 61.2734H-13.7512C-16.3816 61.2734 -18.6618 59.4529 -19.2442 56.8877L-31.017 5.03139ZM-27.0934 1.72656C-28.6423 1.72656 -29.7905 3.1646 -29.4476 4.67508L-17.6748 56.5314C-17.2588 58.3637 -15.6301 59.6641 -13.7512 59.6641H131.752C133.63 59.6641 135.259 58.3636 135.675 56.5314L147.448 4.67508C147.791 3.1646 146.643 1.72656 145.094 1.72656H-27.0934Z" fill="white" fill-opacity="0.39"/>
<path fill-rule="evenodd" clip-rule="evenodd" d="M27.6168 124.844C27.6168 122.622 29.4182 120.82 31.6403 120.82H86.359C88.5811 120.82 90.3824 122.622 90.3824 124.844V157.031C90.3824 159.253 88.5811 161.055 86.359 161.055H31.6403C29.4182 161.055 27.6168 159.253 27.6168 157.031V124.844ZM31.6403 122.43C30.307 122.43 29.2262 123.51 29.2262 124.844V157.031C29.2262 158.365 30.307 159.445 31.6403 159.445H86.359C87.6923 159.445 88.7731 158.365 88.7731 157.031V124.844C88.7731 123.51 87.6923 122.43 86.359 122.43H31.6403Z" fill="white" fill-opacity="0.39"/>
<path fill-rule="evenodd" clip-rule="evenodd" d="M-11.0082 70.125C-11.0082 67.9029 -9.20682 66.1016 -6.98474 66.1016H124.984C127.206 66.1016 129.007 67.9029 129.007 70.125V115.188C129.007 117.41 127.206 119.211 124.984 119.211H-6.98474C-9.20682 119.211 -11.0082 117.41 -11.0082 115.188V70.125ZM-6.98474 67.7109C-8.31799 67.7109 -9.3988 68.7918 -9.3988 70.125V115.188C-9.3988 116.521 -8.31799 117.602 -6.98474 117.602H124.984C126.317 117.602 127.398 116.521 127.398 115.188V70.125C127.398 68.7918 126.317 67.7109 124.984 67.7109H-6.98474Z" fill="white" fill-opacity="0.39"/>
<path fill-rule="evenodd" clip-rule="evenodd" d="M-17.4457 65.2969C-17.4457 62.186 -14.9238 59.6641 -11.8129 59.6641H129.812C132.923 59.6641 135.445 62.186 135.445 65.2969V161.859C135.445 164.97 132.923 167.492 129.812 167.492H-11.8129C-14.9238 167.492 -17.4457 164.97 -17.4457 161.859V65.2969ZM-11.8129 61.2734C-14.0349 61.2734 -15.8363 63.0748 -15.8363 65.2969V161.859C-15.8363 164.081 -14.0349 165.883 -11.8129 165.883H129.812C132.034 165.883 133.836 164.081 133.836 161.859V65.2969C133.836 63.0748 132.034 61.2734 129.812 61.2734H-11.8129Z" fill="white" fill-opacity="0.39"/>
</svg>
