<svg width="58" height="107" viewBox="0 0 58 107" fill="none" xmlns="http://www.w3.org/2000/svg">
<path fill-rule="evenodd" clip-rule="evenodd" d="M0.769531 31.2905C0.769531 14.3142 14.5315 0.552246 31.5078 0.552246C48.4841 0.552246 62.2461 14.3142 62.2461 31.2905V75.6343C62.2461 92.6106 48.4841 106.373 31.5078 106.373C14.5315 106.373 0.769531 92.6106 0.769531 75.6343V31.2905ZM31.5078 1.56006C15.0881 1.56006 1.77734 14.8708 1.77734 31.2905V75.6343C1.77734 92.054 15.0881 105.365 31.5078 105.365C47.9275 105.365 61.2383 92.054 61.2383 75.6343V31.2905C61.2383 14.8708 47.9275 1.56006 31.5078 1.56006Z" fill="white" fill-opacity="0.6"/>
<path fill-rule="evenodd" clip-rule="evenodd" d="M0.769531 31.2905C0.769531 14.3142 14.5315 0.552246 31.5078 0.552246C48.4841 0.552246 62.2461 14.3142 62.2461 31.2905V63.5405C62.2461 80.5168 48.4841 94.2788 31.5078 94.2788C14.5315 94.2788 0.769531 80.5168 0.769531 63.5405V31.2905ZM31.5078 1.56006C15.0881 1.56006 1.77734 14.8708 1.77734 31.2905V63.5405C1.77734 79.9602 15.0881 93.271 31.5078 93.271C47.9275 93.271 61.2383 79.9602 61.2383 63.5405V31.2905C61.2383 14.8708 47.9275 1.56006 31.5078 1.56006Z" fill="white" fill-opacity="0.6"/>
<path fill-rule="evenodd" clip-rule="evenodd" d="M31.5078 0.552002C31.7861 0.552002 32.0117 0.777608 32.0117 1.05591V12.008C32.0117 12.2863 31.7861 12.5119 31.5078 12.5119C31.2295 12.5119 31.0039 12.2863 31.0039 12.008V1.05591C31.0039 0.777608 31.2295 0.552002 31.5078 0.552002ZM31.5078 27.9362C31.7861 27.9362 32.0117 28.1618 32.0117 28.4401V36.3293C32.0117 36.6077 31.7861 36.8333 31.5078 36.8333C31.2295 36.8333 31.0039 36.6077 31.0039 36.3293V28.4401C31.0039 28.1618 31.2295 27.9362 31.5078 27.9362Z" fill="white" fill-opacity="0.6"/>
<path fill-rule="evenodd" clip-rule="evenodd" d="M31.5078 36.8333C30.0264 36.8333 28.9883 37.8178 28.9883 38.8489C28.9883 39.88 30.0264 40.8645 31.5078 40.8645C32.9892 40.8645 34.0273 39.88 34.0273 38.8489C34.0273 37.8178 32.9892 36.8333 31.5078 36.8333ZM27.9805 38.8489C27.9805 37.097 29.6496 35.8254 31.5078 35.8254C33.366 35.8254 35.0352 37.097 35.0352 38.8489C35.0352 40.6008 33.366 41.8723 31.5078 41.8723C29.6496 41.8723 27.9805 40.6008 27.9805 38.8489Z" fill="white" fill-opacity="0.6"/>
<path fill-rule="evenodd" clip-rule="evenodd" d="M25.9648 16.1731C25.9648 13.6684 27.9953 11.6379 30.5 11.6379H32.5156C35.0203 11.6379 37.0508 13.6684 37.0508 16.1731V24.2356C37.0508 26.7403 35.0203 28.7708 32.5156 28.7708H30.5C27.9953 28.7708 25.9648 26.7403 25.9648 24.2356V16.1731ZM30.5 12.6458C28.5519 12.6458 26.9727 14.225 26.9727 16.1731V24.2356C26.9727 26.1837 28.5519 27.7629 30.5 27.7629H32.5156C34.4637 27.7629 36.043 26.1837 36.043 24.2356V16.1731C36.043 14.225 34.4637 12.6458 32.5156 12.6458H30.5Z" fill="white" fill-opacity="0.6"/>
<path fill-rule="evenodd" clip-rule="evenodd" d="M27.9805 16.2097C27.9805 14.8182 29.1085 13.6902 30.5 13.6902H32.5156C33.9071 13.6902 35.0352 14.8182 35.0352 16.2097V25.28C35.0352 26.6715 33.9071 27.7996 32.5156 27.7996H30.5C29.1085 27.7996 27.9805 26.6715 27.9805 25.28V16.2097ZM30.5 14.698C29.6651 14.698 28.9883 15.3748 28.9883 16.2097V25.28C28.9883 26.1149 29.6651 26.7917 30.5 26.7917H32.5156C33.3505 26.7917 34.0273 26.1149 34.0273 25.28V16.2097C34.0273 15.3748 33.3505 14.698 32.5156 14.698H30.5Z" fill="white" fill-opacity="0.6"/>
</svg>
