<svg width="66" height="73" viewBox="0 0 66 73" fill="none" xmlns="http://www.w3.org/2000/svg">
<path d="M44.0322 38.0309L41.5187 37.0776C44.8122 28.6704 49.4058 25.2035 52.6994 23.9034C57.1196 22.0833 60.4998 18.0098 61.7132 12.9828C62.6666 8.90922 62.4933 6.22239 61.1932 5.269C58.7664 3.62224 52.0927 7.08911 49.2325 9.08256L47.7591 6.91576C48.7991 6.22239 58.1597 -0.0179815 62.7533 3.1022C65.0934 4.74897 65.6135 8.12917 64.3134 13.5895C62.9266 19.3965 58.9397 24.1635 53.7394 26.3303C49.7525 28.0637 46.3723 32.0506 44.0322 38.0309Z" fill="url(#paint0_linear_6_381)"/>
<path d="M20.9777 38.0314C18.6375 32.0511 15.2573 27.9775 11.2704 26.3307C6.07012 24.1639 2.08322 19.397 0.69647 13.59C-0.603608 8.12966 -0.0835756 4.74946 2.25656 3.10269C6.85017 -0.0174932 16.2107 6.22288 17.2508 6.91625L15.7774 9.08305C12.9172 7.0896 6.24347 3.62273 3.81666 5.26949C2.51658 6.13621 2.34323 8.9097 3.29662 12.9833C4.51003 17.9236 7.89023 21.9972 12.3105 23.9039C15.604 25.2907 20.1976 28.6709 23.4912 37.078L20.9777 38.0314Z" fill="url(#paint1_linear_6_381)"/>
<path d="M22.5378 56.405H42.3857C39.2655 52.9381 37.7054 48.4312 36.9253 44.5309C35.9719 40.024 36.1453 36.3838 36.1453 36.3838H28.6915C28.6915 36.3838 28.8649 40.024 27.9115 44.5309C27.2181 48.4312 25.658 52.9381 22.5378 56.405Z" fill="url(#paint2_linear_6_381)"/>
<path d="M37.0117 44.5309C35.5382 44.8776 34.0648 45.1376 32.5047 45.1376C30.9446 45.1376 29.4712 44.9643 27.9978 44.5309C28.9512 40.024 28.7779 36.3838 28.7779 36.3838H36.2316C36.2316 36.3838 36.0583 40.024 37.0117 44.5309Z" fill="url(#paint3_linear_6_381)"/>
<path d="M14.0441 0.761719C11.8773 5.09531 10.5772 10.2089 10.5772 15.6693C10.5772 31.0102 20.3712 43.4043 32.5052 43.4043C44.6393 43.4043 54.4332 31.0102 54.4332 15.6693C54.4332 10.1223 53.1331 5.00864 50.9663 0.761719H14.0441Z" fill="url(#paint4_linear_6_381)"/>
<path d="M47.1527 56.4048H17.8576C17.1642 56.4048 16.5575 57.0115 16.5575 57.7049V70.9656C16.5575 71.659 17.1642 72.2657 17.8576 72.2657H47.1527C47.8461 72.2657 48.4528 71.659 48.4528 70.9656V57.7049C48.4528 57.0115 47.8461 56.4048 47.1527 56.4048Z" fill="#333333" fill-opacity="0.9"/>
<defs>
<linearGradient id="paint0_linear_6_381" x1="53.2643" y1="2.23401" x2="53.2643" y2="38.0309" gradientUnits="userSpaceOnUse">
<stop stop-color="#85F1F1"/>
<stop offset="1" stop-color="#00798A"/>
</linearGradient>
<linearGradient id="paint1_linear_6_381" x1="11.7456" y1="2.2345" x2="11.7456" y2="38.0314" gradientUnits="userSpaceOnUse">
<stop stop-color="#85F1F1"/>
<stop offset="1" stop-color="#00798A"/>
</linearGradient>
<linearGradient id="paint2_linear_6_381" x1="32.4617" y1="36.3838" x2="32.4617" y2="56.405" gradientUnits="userSpaceOnUse">
<stop stop-color="#4CE3E3"/>
<stop offset="1" stop-color="#217CD0"/>
</linearGradient>
<linearGradient id="paint3_linear_6_381" x1="32.5047" y1="36.3838" x2="32.5047" y2="45.1376" gradientUnits="userSpaceOnUse">
<stop stop-color="#85F1F1"/>
<stop offset="1" stop-color="#00798A"/>
</linearGradient>
<linearGradient id="paint4_linear_6_381" x1="32.5052" y1="0.761719" x2="32.5052" y2="43.4043" gradientUnits="userSpaceOnUse">
<stop stop-color="#4CE3E3"/>
<stop offset="1" stop-color="#217CD0"/>
</linearGradient>
</defs>
</svg>
