<svg width="30" height="30" viewBox="0 0 30 30" fill="none" xmlns="http://www.w3.org/2000/svg">
<path fill-rule="evenodd" clip-rule="evenodd" d="M15 0C23.271 0 30 6.729 30 15C30 23.271 23.271 30 15 30C6.729 30 0 23.271 0 15C0 6.729 6.729 0 15 0ZM15 2.25C7.9695 2.25 2.25 7.9695 2.25 15C2.25 22.0305 7.9695 27.75 15 27.75C22.0305 27.75 27.75 22.0305 27.75 15C27.75 7.9695 22.0305 2.25 15 2.25ZM14.4918 7.6431C15.1143 7.6431 15.6168 8.1471 15.6168 8.7681V15.4011L20.7243 18.4461C21.2568 18.7656 21.4323 19.4556 21.1143 19.9896C20.9028 20.3421 20.5293 20.5386 20.1468 20.5386C19.9503 20.5386 19.7523 20.4876 19.5708 20.3811L13.9158 17.0076C13.5768 16.8036 13.3668 16.4361 13.3668 16.0401V8.7681C13.3668 8.1471 13.8708 7.6431 14.4918 7.6431Z" fill="white"/>
</svg>
