<svg width="35" height="25" viewBox="0 0 35 25" fill="none" xmlns="http://www.w3.org/2000/svg">
<path d="M17.3469 0C12.2939 0 7.82161 0.479405 5.10147 0.852273C2.87502 1.15412 1.10355 2.75213 0.696975 4.80291C0.348488 6.59624 0 9.2152 0 12.5C0 15.7848 0.348488 18.4038 0.696975 20.1971C1.10355 22.2479 2.87502 23.837 5.10147 24.1477C7.83129 24.5206 12.3229 25 17.3469 25C22.371 25 26.8529 24.5206 29.5827 24.1477H29.5924C31.8189 23.8459 33.5903 22.2479 33.9969 20.1971C34.3454 18.3949 34.6939 15.7759 34.6939 12.5C34.6939 9.2152 34.3454 6.59624 33.9872 4.80291C33.5903 2.75213 31.8189 1.15412 29.5924 0.852273C26.8723 0.479405 22.4 0 17.3469 0ZM17.3469 2.27273C22.2258 2.27273 26.5915 2.73438 29.2246 3.09837C30.3862 3.25817 31.3252 4.09268 31.5478 5.20242C31.8769 6.88033 32.2157 9.36612 32.2157 12.5C32.2157 15.6339 31.8769 18.1197 31.5575 19.7887C31.3348 20.9073 30.3959 21.7418 29.2246 21.9016C26.5722 22.2567 22.1967 22.7273 17.3469 22.7273C12.4972 22.7273 8.11202 22.2567 5.46932 21.9016C4.30769 21.7418 3.35903 20.9073 3.13639 19.7887C2.81694 18.1108 2.47813 15.6339 2.47813 12.5C2.47813 9.35725 2.81694 6.88033 3.13639 5.20242C3.35903 4.09268 4.29801 3.25817 5.45964 3.10725H5.46932C8.10234 2.74325 12.4681 2.27273 17.3469 2.27273ZM12.3907 6.81818V18.1818L24.7813 12.5L12.3907 6.81818Z" fill="white"/>
</svg>
